<?xml version="1.0" encoding="UTF-8" standalone="no"?>
<svg
   id="Layer_1"
   viewBox="0 0 283.46 283.46"
   version="1.1"
   sodipodi:docname="GentGemapt_kaart.svg"
   inkscape:version="1.2.2 (1:1.2.2+202212051552+b0a8486541)"
   xmlns:inkscape="http://www.inkscape.org/namespaces/inkscape"
   xmlns:sodipodi="http://sodipodi.sourceforge.net/DTD/sodipodi-0.dtd"
   xmlns="http://www.w3.org/2000/svg"
   xmlns:svg="http://www.w3.org/2000/svg">
  <sodipodi:namedview
     id="namedview193"
     pagecolor="#ffffff"
     bordercolor="#666666"
     borderopacity="1.0"
     inkscape:showpageshadow="2"
     inkscape:pageopacity="0.0"
     inkscape:pagecheckerboard="0"
     inkscape:deskcolor="#d1d1d1"
     showgrid="false"
     inkscape:zoom="2.8681296"
     inkscape:cx="139.28938"
     inkscape:cy="142.07866"
     inkscape:window-width="2560"
     inkscape:window-height="1349"
     inkscape:window-x="0"
     inkscape:window-y="0"
     inkscape:window-maximized="1"
     inkscape:current-layer="Layer_1" />
  <defs
     id="defs188">
    <style
       id="style186">.cls-1{fill:#1d1d1b;}</style>
  </defs>
  <path
     class="cls-1"
     d="m215.69,96.55c-.07-.15-.15-.3-.22-.45-1.11-2.61-2.48-5.09-4.12-7.42-3.21-4.96-7.1-9.38-11.69-13.26-.56-.47-1.13-.92-1.71-1.37,4.69-1.86,8.29-4.46,10.78-7.79,2.84-3.78,4.26-8.38,4.26-13.79s-1.56-9.6-4.67-12.58c-3.11-2.97-7.37-4.46-12.78-4.46-4.6,0-8.05,1.15-10.34,3.45-2.3,2.3-3.99,6.43-5.07,12.37-1.17,5.61-3.35,8.79-6.54,9.55-.77.18-1.58.1-2.34-.12-8.62-2.49-18.01-3.75-28.19-3.75-.45,0-.9.02-1.35.02-.45,0-.9-.02-1.35-.02-10.57,0-20.29,1.36-29.18,4.04-.89.27-1.79.54-2.67.84-8.83,2.99-16.5,7.08-23.04,12.24-.57.45-1.15.9-1.71,1.37-4.59,3.88-8.47,8.3-11.68,13.26-1.63,2.33-3,4.81-4.12,7.43-.07.15-.15.3-.22.45-3.79,8.26-5.68,17.27-5.68,27.02,0,17.34,6.9,33.46,20.69,48.35,2.43,2.44,4.93,4.88,7.51,7.31,2.19,2.09,33.76,29.01,46.7,65.71,1.6,4.54,7.94,4.55,9.55,0,13.05-36.96,44.44-63.63,46.64-65.72,2.57-2.43,5.07-4.87,7.51-7.31,13.79-14.89,20.69-31.01,20.69-48.35,0-9.75-1.89-18.75-5.68-27.02Z"
     id="path190"
     style="fill:#ed474a;fill-opacity:1" />
</svg>
