<?xml version="1.0" encoding="UTF-8" standalone="no"?>
<svg
   id="Layer_1"
   viewBox="0 0 283.46 283.46"
   version="1.1"
   sodipodi:docname="GentGemapt_verrijk2.svg"
   inkscape:version="1.2.2 (1:1.2.2+202212051552+b0a8486541)"
   xmlns:inkscape="http://www.inkscape.org/namespaces/inkscape"
   xmlns:sodipodi="http://sodipodi.sourceforge.net/DTD/sodipodi-0.dtd"
   xmlns="http://www.w3.org/2000/svg"
   xmlns:svg="http://www.w3.org/2000/svg">
  <sodipodi:namedview
     id="namedview319"
     pagecolor="#ffffff"
     bordercolor="#666666"
     borderopacity="1.0"
     inkscape:showpageshadow="2"
     inkscape:pageopacity="0.0"
     inkscape:pagecheckerboard="0"
     inkscape:deskcolor="#d1d1d1"
     showgrid="false"
     inkscape:zoom="2.8681296"
     inkscape:cx="124.99435"
     inkscape:cy="142.07866"
     inkscape:window-width="2560"
     inkscape:window-height="1349"
     inkscape:window-x="0"
     inkscape:window-y="0"
     inkscape:window-maximized="1"
     inkscape:current-layer="Layer_1" />
  <defs
     id="defs314">
    <style
       id="style312">.cls-1{fill:#1d1d1b;}</style>
  </defs>
  <path
     class="cls-1"
     d="m230.9,93.36c.01-1.21-.6-2.33-1.63-2.97l-26.02-16.33h.02c4.69-1.87,8.29-4.46,10.78-7.79,2.84-3.78,4.26-8.38,4.26-13.79s-1.56-9.6-4.67-12.58c-3.11-2.97-7.37-4.46-12.78-4.46-4.6,0-8.05,1.15-10.34,3.45-2.3,2.3-3.99,6.43-5.07,12.37-1.17,5.61-2.69,7.15-4.33,7.53-1.09.25-1.77.17-2.68-.3l-33.37-20.95c-2.05-1.29-4.66-1.29-6.71,0l-84.19,52.85c-1.02.64-1.64,1.76-1.63,2.97.16,14.72,4.4,108.96,86.11,153.38,1.91,1.04,4.22,1.04,6.13,0,81.7-44.42,85.95-138.66,86.11-153.38Z"
     id="path316"
     style="fill:#ed474a;fill-opacity:1" />
</svg>
