<svg class="w-full max-w-logo md:max-w-logo-footer" width="198px" height="84px" viewBox="0 0 198 84" version="1.1" xmlns="http://www.w3.org/2000/svg" xmlns:xlink="http://www.w3.org/1999/xlink" role="img" aria-label="logo">
    <title>Group</title>
    <g id="Page-1" stroke="none" stroke-width="1" fill="none" fill-rule="evenodd">
        <g id="Vlaanderen_verbeelding-werkt" transform="translate(-37.000000, -99.000000)" fill="#2F2F2E">
            <g id="Group" transform="translate(37.261671, 99.797000)">
                <polygon id="Fill-1" points="77.4820292 21.2885 71.1020292 39.8055 67.3100292 39.8055 60.9300292 21.2885 64.3620292 21.2885 69.2060292 35.3495 74.0500292 21.2885"></polygon>
                <polygon id="Fill-2" points="79.7007292 19.766 82.5237292 19.489 82.9387292 19.489 82.9387292 39.529 79.7007292 39.529"></polygon>
                <path d="M93.5415292,33.7167 C92.0325292,33.7167 90.8565292,33.6887 90.0535292,33.8827 C89.2505292,34.0757 88.8085292,34.4907 88.8085292,35.3357 C88.8085292,36.5127 89.6525292,37.1627 90.8285292,37.1627 C91.2295292,37.1627 91.9085292,37.0797 92.4895292,36.7197 C93.0705292,36.3607 93.5415292,35.7377 93.5415292,34.5887 L93.5415292,33.7167 Z M97.4025292,39.8057 C96.8625292,39.8057 96.3365292,39.7227 95.7975292,39.4877 C95.2575292,39.2667 94.7175292,38.8927 94.1775292,38.2977 C93.6105292,38.7267 93.1125292,39.1007 92.5175292,39.3627 C91.9085292,39.6397 91.2295292,39.8057 90.3025292,39.8057 C89.6385292,39.8057 88.9045292,39.7087 88.1995292,39.4597 C87.4935292,39.2107 86.8425292,38.7957 86.3585292,38.1167 C85.8745292,37.4397 85.5695292,36.4977 85.5695292,35.2257 C85.5695292,33.9657 85.8745292,32.9547 86.6485292,32.2777 C87.4245292,31.5997 88.6835292,31.2257 90.6075292,31.2257 C91.3825292,31.2257 92.2815292,31.2257 93.5555292,31.3357 L93.5555292,30.6157 C93.5555292,29.6197 93.2365292,28.9277 92.7245292,28.5127 C92.2125292,28.0977 91.5205292,27.9317 90.7455292,27.9317 C90.1365292,27.9317 89.4585292,28.0427 88.7945292,28.2217 C88.1295292,28.4027 87.4655292,28.6367 86.8985292,28.9137 L86.1375292,26.0907 C87.6455292,25.3707 89.5695292,24.8727 91.3825292,24.8727 C92.8075292,24.8727 94.1365292,25.1777 95.1325292,25.9247 C96.1155292,26.6727 96.7385292,27.8487 96.7385292,29.6067 L96.7385292,34.9477 C96.7385292,35.6267 96.9595292,36.1117 97.3475292,36.4437 C97.7215292,36.7757 98.2465292,36.9687 98.8695292,37.0937 L97.4025292,39.8057 Z" id="Fill-3"></path>
                <path d="M107.673829,33.7167 C106.165829,33.7167 104.989829,33.6887 104.186829,33.8827 C103.383829,34.0757 102.941829,34.4907 102.941829,35.3357 C102.941829,36.5127 103.785829,37.1627 104.962829,37.1627 C105.363829,37.1627 106.040829,37.0797 106.622829,36.7197 C107.202829,36.3607 107.673829,35.7377 107.673829,34.5887 L107.673829,33.7167 Z M111.534829,39.8057 C110.995829,39.8057 110.470829,39.7227 109.929829,39.4877 C109.390829,39.2667 108.851829,38.8927 108.310829,38.2977 C107.743829,38.7267 107.245829,39.1007 106.650829,39.3627 C106.040829,39.6397 105.363829,39.8057 104.435829,39.8057 C103.771829,39.8057 103.038829,39.7087 102.332829,39.4597 C101.626829,39.2107 100.975829,38.7957 100.491829,38.1167 C100.006829,37.4397 99.7028292,36.4977 99.7028292,35.2257 C99.7028292,33.9657 100.006829,32.9547 100.782829,32.2777 C101.556829,31.5997 102.816829,31.2257 104.740829,31.2257 C105.515829,31.2257 106.415829,31.2257 107.687829,31.3357 L107.687829,30.6157 C107.687829,29.6197 107.370829,28.9277 106.857829,28.5127 C106.345829,28.0977 105.653829,27.9317 104.879829,27.9317 C104.269829,27.9317 103.591829,28.0427 102.926829,28.2217 C102.262829,28.4027 101.598829,28.6367 101.031829,28.9137 L100.269829,26.0907 C101.778829,25.3707 103.702829,24.8727 105.515829,24.8727 C106.941829,24.8727 108.269829,25.1777 109.265829,25.9247 C110.247829,26.6727 110.870829,27.8487 110.870829,29.6067 L110.870829,34.9477 C110.870829,35.6267 111.093829,36.1117 111.480829,36.4437 C111.853829,36.7757 112.380829,36.9687 113.001829,37.0937 L111.534829,39.8057 Z" id="Fill-5"></path>
                <path d="M114.943429,25.1635 L117.683429,25.1635 L118.002429,26.2845 C119.330429,25.3985 120.978429,24.8865 122.584429,24.8865 C123.953429,24.8865 125.267429,25.2605 126.222429,26.0905 C127.177429,26.9215 127.800429,28.2085 127.800429,29.9945 L127.800429,39.5295 L124.562429,39.5295 L124.562429,30.9485 C124.562429,29.8825 124.175429,29.1355 123.580429,28.6645 C122.984429,28.1945 122.154429,28.0005 121.310429,28.0005 C120.203429,28.0005 119.068429,28.3325 118.181429,28.8865 L118.181429,39.5295 L114.943429,39.5295 L114.943429,25.1635 Z" id="Fill-7"></path>
                <path d="M140.066429,28.2084 C139.250429,28.0004 138.420429,27.9034 137.769429,27.9034 C136.537429,27.9034 135.500429,28.2634 134.779429,29.0114 C134.060429,29.7584 133.644429,30.8654 133.644429,32.3604 C133.644429,33.4544 133.949429,34.5194 134.531429,35.3354 C135.113429,36.1524 135.970429,36.6924 137.119429,36.6924 C138.101429,36.6924 139.195429,36.3454 140.066429,35.8064 L140.066429,28.2084 Z M143.304429,39.5294 L140.855429,39.5294 L140.275429,38.4504 C139.168429,39.2804 138.003429,39.8054 136.414429,39.8054 C134.351429,39.8054 132.814429,38.9754 131.804429,37.7024 C130.795429,36.4284 130.296429,34.7124 130.296429,32.9414 C130.296429,30.2294 131.113429,28.2084 132.468429,26.8654 C133.826429,25.5374 135.734429,24.8864 137.949429,24.8864 C138.599429,24.8864 139.306429,24.9284 140.066429,25.0254 L140.066429,19.7664 L142.806429,19.4894 L143.304429,19.4894 L143.304429,39.5294 Z" id="Fill-9"></path>
                <path d="M155.197329,30.9901 C155.099329,29.9381 154.754329,29.1911 154.256329,28.6931 C153.758329,28.2081 153.121329,28.0011 152.498329,28.0011 C151.834329,28.0011 151.156329,28.2221 150.601329,28.7061 C150.035329,29.2051 149.578329,29.9521 149.398329,30.9901 L155.197329,30.9901 Z M157.424329,35.8061 L157.424329,38.9481 C156.773329,39.2661 156.082329,39.4601 155.377329,39.5981 C154.656329,39.7371 153.951329,39.8051 153.342329,39.8051 C151.349329,39.8051 149.508329,39.1831 148.152329,37.9511 C146.795329,36.7191 145.937329,34.8381 145.937329,32.3461 C145.937329,29.9251 146.740329,28.0701 147.959329,26.7971 C149.162329,25.5371 150.781329,24.8861 152.400329,24.8861 C152.857329,24.8861 153.674329,24.9421 154.517329,25.2331 C155.363329,25.5231 156.289329,26.0771 156.982329,27.0321 C157.674329,27.9871 158.158329,29.3981 158.158329,31.3911 L158.158329,33.5511 L149.439329,33.5511 C149.701329,34.7131 150.297329,35.5021 151.072329,36.0001 C151.834329,36.4981 152.759329,36.7061 153.687329,36.7061 C154.906329,36.7061 156.193329,36.3601 157.301329,35.7641 L157.424329,35.8061 Z" id="Fill-11"></path>
                <path d="M169.080129,28.7343 C168.264129,28.2363 167.461129,28.0143 166.644129,28.0143 C165.594129,28.0143 164.625129,28.4023 163.752129,29.0663 L163.752129,39.5293 L160.514129,39.5293 L160.514129,25.1633 L163.254129,25.1633 L163.586129,26.3393 C164.582129,25.4953 165.801129,24.8863 167.240129,24.8863 C167.627129,24.8863 168.168129,24.9143 168.693129,25.0113 C169.219129,25.1083 169.730129,25.2463 170.105129,25.4543 L169.080129,28.7343 Z" id="Fill-13"></path>
                <path d="M179.228529,30.9901 C179.130529,29.9381 178.785529,29.1911 178.287529,28.6931 C177.789529,28.2081 177.152529,28.0011 176.529529,28.0011 C175.865529,28.0011 175.187529,28.2221 174.632529,28.7061 C174.066529,29.2051 173.609529,29.9521 173.429529,30.9901 L179.228529,30.9901 Z M181.455529,35.8061 L181.455529,38.9481 C180.804529,39.2661 180.113529,39.4601 179.408529,39.5981 C178.687529,39.7371 177.982529,39.8051 177.373529,39.8051 C175.380529,39.8051 173.539529,39.1831 172.183529,37.9511 C170.826529,36.7191 169.968529,34.8381 169.968529,32.3461 C169.968529,29.9251 170.771529,28.0701 171.990529,26.7971 C173.193529,25.5371 174.812529,24.8861 176.431529,24.8861 C176.888529,24.8861 177.705529,24.9421 178.548529,25.2331 C179.394529,25.5231 180.320529,26.0771 181.013529,27.0321 C181.705529,27.9871 182.189529,29.3981 182.189529,31.3911 L182.189529,33.5511 L173.470529,33.5511 C173.732529,34.7131 174.328529,35.5021 175.103529,36.0001 C175.865529,36.4981 176.790529,36.7061 177.718529,36.7061 C178.937529,36.7061 180.224529,36.3601 181.332529,35.7641 L181.455529,35.8061 Z" id="Fill-15"></path>
                <path d="M184.544929,25.1635 L187.284929,25.1635 L187.603929,26.2845 C188.931929,25.3985 190.579929,24.8865 192.185929,24.8865 C193.554929,24.8865 194.868929,25.2605 195.823929,26.0905 C196.778929,26.9215 197.401929,28.2085 197.401929,29.9945 L197.401929,39.5295 L194.163929,39.5295 L194.163929,30.9485 C194.163929,29.8825 193.776929,29.1355 193.181929,28.6645 C192.585929,28.1945 191.755929,28.0005 190.911929,28.0005 C189.804929,28.0005 188.669929,28.3325 187.782929,28.8865 L187.782929,39.5295 L184.544929,39.5295 L184.544929,25.1635 Z" id="Fill-17"></path>
                <polygon id="Fill-19" points="72.5669292 52.1747 69.7619292 60.3317 68.1349292 60.3317 65.3379292 52.1747 66.5949292 52.1747 68.9519292 59.0347 71.3099292 52.1747"></polygon>
                <path d="M78.5215292,55.4599 C78.5135292,54.8309 78.4275292,54.2579 78.1835292,53.8329 C77.9395292,53.4089 77.5395292,53.1489 76.9025292,53.1489 C76.2825292,53.1489 75.7875292,53.3939 75.4095292,53.8019 C75.0325292,54.2099 74.7895292,54.7919 74.6875292,55.4599 L78.5215292,55.4599 Z M79.7165292,56.5609 L74.6315292,56.5609 C74.6945292,57.5029 75.0245292,58.2019 75.5035292,58.6659 C75.9835292,59.1299 76.6275292,59.3569 77.3275292,59.3569 C78.0585292,59.3569 78.7805292,59.1529 79.5275292,58.7759 L79.5515292,58.7839 L79.5515292,59.9069 C78.7025292,60.3239 77.9635292,60.4889 77.2095292,60.4889 C76.1955292,60.4889 75.2445292,60.1509 74.5535292,59.4439 C73.8615292,58.7359 73.4215292,57.6599 73.4215292,56.1509 C73.4215292,54.9879 73.6885292,53.9429 74.2625292,53.2039 C74.8285292,52.4659 75.7005292,52.0179 76.9265292,52.0179 C77.7675292,52.0179 78.3485292,52.2309 78.7655292,52.5679 C79.1735292,52.9059 79.4175292,53.3689 79.5515292,53.8809 C79.6845292,54.3919 79.7165292,54.9489 79.7165292,55.4599 L79.7165292,56.5609 Z" id="Fill-21"></path>
                <path d="M81.8906292,52.1747 L82.7076292,52.1747 L82.9906292,53.1027 C83.5956292,52.4037 84.2406292,52.0177 84.9946292,52.0177 C85.1906292,52.0177 85.4346292,52.0417 85.6786292,52.0887 C85.9216292,52.1357 86.1576292,52.2147 86.3466292,52.3007 L85.9216292,53.3937 C85.6156292,53.2437 85.1366292,53.1417 84.7986292,53.1417 C84.0826292,53.1417 83.5246292,53.5977 83.1086292,54.2347 L83.1086292,60.3317 L81.8906292,60.3317 L81.8906292,52.1747 Z" id="Fill-23"></path>
                <path d="M89.0874292,59.122 C89.6214292,59.334 90.1484292,59.373 90.6824292,59.373 C91.4994292,59.373 92.1994292,59.066 92.7024292,58.501 C93.1974292,57.943 93.4874292,57.126 93.4874292,56.097 C93.4874292,55.287 93.3074292,54.557 92.9064292,54.021 C92.5054292,53.487 91.8924292,53.149 91.0204292,53.149 C90.2034292,53.149 89.5044292,53.44 89.0874292,54.037 L89.0874292,59.122 Z M87.8694292,49.11 L89.0084292,48.953 L89.0874292,48.953 L89.0874292,52.733 C89.6604292,52.293 90.3364292,52.018 91.1854292,52.018 C92.2544292,52.018 93.1344292,52.474 93.7474292,53.221 C94.3594292,53.975 94.7064292,55.019 94.7064292,56.206 C94.7064292,57.361 94.3834292,58.431 93.7084292,59.208 C93.0324292,59.994 92.0024292,60.489 90.5964292,60.489 C89.5824292,60.489 88.6234292,60.222 87.8694292,59.907 L87.8694292,49.11 Z" id="Fill-25"></path>
                <path d="M101.061529,55.4599 C101.053529,54.8309 100.966529,54.2579 100.723529,53.8329 C100.479529,53.4089 100.079529,53.1489 99.4425292,53.1489 C98.8215292,53.1489 98.3265292,53.3939 97.9495292,53.8019 C97.5725292,54.2099 97.3285292,54.7919 97.2265292,55.4599 L101.061529,55.4599 Z M102.255529,56.5609 L97.1705292,56.5609 C97.2345292,57.5029 97.5645292,58.2019 98.0435292,58.6659 C98.5235292,59.1299 99.1665292,59.3569 99.8675292,59.3569 C100.597529,59.3569 101.320529,59.1529 102.067529,58.7759 L102.090529,58.7839 L102.090529,59.9069 C101.242529,60.3239 100.502529,60.4889 99.7485292,60.4889 C98.7355292,60.4889 97.7845292,60.1509 97.0925292,59.4439 C96.4015292,58.7359 95.9605292,57.6599 95.9605292,56.1509 C95.9605292,54.9879 96.2285292,53.9429 96.8025292,53.2039 C97.3685292,52.4659 98.2405292,52.0179 99.4655292,52.0179 C100.306529,52.0179 100.888529,52.2309 101.304529,52.5679 C101.713529,52.9059 101.957529,53.3689 102.090529,53.8809 C102.224529,54.3919 102.255529,54.9489 102.255529,55.4599 L102.255529,56.5609 Z" id="Fill-27"></path>
                <path d="M108.493229,55.4599 C108.485229,54.8309 108.399229,54.2579 108.155229,53.8329 C107.912229,53.4089 107.511229,53.1489 106.875229,53.1489 C106.254229,53.1489 105.759229,53.3939 105.382229,53.8019 C105.004229,54.2099 104.761229,54.7919 104.658229,55.4599 L108.493229,55.4599 Z M109.687229,56.5609 L104.603229,56.5609 C104.666229,57.5029 104.996229,58.2019 105.475229,58.6659 C105.955229,59.1299 106.599229,59.3569 107.299229,59.3569 C108.029229,59.3569 108.753229,59.1529 109.499229,58.7759 L109.522229,58.7839 L109.522229,59.9069 C108.674229,60.3239 107.935229,60.4889 107.180229,60.4889 C106.167229,60.4889 105.217229,60.1509 104.525229,59.4439 C103.833229,58.7359 103.393229,57.6599 103.393229,56.1509 C103.393229,54.9879 103.660229,53.9429 104.234229,53.2039 C104.800229,52.4659 105.672229,52.0179 106.898229,52.0179 C107.739229,52.0179 108.320229,52.2309 108.737229,52.5679 C109.145229,52.9059 109.389229,53.3689 109.522229,53.8809 C109.656229,54.3919 109.687229,54.9489 109.687229,55.4599 L109.687229,56.5609 Z" id="Fill-29"></path>
                <polygon id="Fill-31" points="111.453129 49.1103 112.585129 48.9533 112.664129 48.9533 112.664129 60.3323 111.453129 60.3323"></polygon>
                <path d="M120.167029,53.456 C119.617029,53.244 119.083029,53.134 118.572029,53.134 C117.755029,53.134 117.056029,53.393 116.561029,53.912 C116.058029,54.431 115.767029,55.208 115.767029,56.238 C115.767029,57.047 115.947029,57.825 116.348029,58.398 C116.749029,58.973 117.362029,59.35 118.234029,59.35 C119.052029,59.35 119.735029,59.066 120.167029,58.462 L120.167029,53.456 Z M121.386029,60.332 L120.615029,60.332 L120.363029,59.609 C119.743029,60.144 119.012029,60.481 118.069029,60.481 C117.000029,60.481 116.120029,59.986 115.507029,59.192 C114.895029,58.407 114.549029,57.322 114.549029,56.136 C114.549029,54.98 114.879029,53.959 115.555029,53.213 C116.230029,52.466 117.252029,52.018 118.658029,52.018 C119.192029,52.018 119.688029,52.089 120.167029,52.183 L120.167029,49.11 L121.307029,48.953 L121.386029,48.953 L121.386029,60.332 Z" id="Fill-33"></path>
                <path d="M124.134329,60.332 L125.344329,60.332 L125.344329,52.175 L124.134329,52.175 L124.134329,60.332 Z M123.898329,49.951 C123.898329,49.724 123.992329,49.511 124.149329,49.354 C124.299329,49.205 124.510329,49.11 124.739329,49.11 C124.967329,49.11 125.178329,49.205 125.336329,49.354 C125.493329,49.511 125.588329,49.724 125.588329,49.951 C125.588329,50.179 125.493329,50.384 125.336329,50.533 C125.178329,50.689 124.967329,50.784 124.739329,50.784 C124.510329,50.784 124.299329,50.689 124.149329,50.533 C123.992329,50.384 123.898329,50.179 123.898329,49.951 L123.898329,49.951 Z" id="Fill-35"></path>
                <path d="M128.101629,52.1747 L128.917629,52.1747 L129.146629,52.9297 C129.484629,52.7097 129.892629,52.4817 130.325629,52.3087 C130.756629,52.1357 131.205629,52.0177 131.589629,52.0177 C132.368629,52.0177 133.082629,52.2147 133.617629,52.7007 C134.144629,53.1887 134.474629,53.9587 134.474629,55.1137 L134.474629,60.3317 L133.255629,60.3317 L133.255629,55.1847 C133.255629,54.3997 133.051629,53.8887 132.737629,53.5737 C132.414629,53.2597 131.967629,53.1417 131.472629,53.1417 C131.094629,53.1417 130.709629,53.2437 130.340629,53.3937 C129.971629,53.5427 129.633629,53.7387 129.319629,53.9277 L129.319629,60.3317 L128.101629,60.3317 L128.101629,52.1747 Z" id="Fill-37"></path>
                <path d="M139.406329,53.1025 C138.802329,53.1025 138.338329,53.3305 138.023329,53.6525 C137.709329,53.9745 137.552329,54.3995 137.552329,54.8075 C137.552329,55.2155 137.717329,55.6405 138.031329,55.9625 C138.345329,56.2855 138.809329,56.5045 139.430329,56.5045 C140.035329,56.5045 140.491329,56.2855 140.798329,55.9625 C141.104329,55.6485 141.253329,55.2325 141.253329,54.8235 C141.253329,54.4155 141.095329,53.9825 140.790329,53.6525 C140.475329,53.3225 140.011329,53.1025 139.406329,53.1025 L139.406329,53.1025 Z M138.118329,59.6715 C137.677329,60.1745 137.394329,60.8115 137.394329,61.3765 C137.394329,61.8565 137.528329,62.2735 137.843329,62.5635 C138.157329,62.8545 138.652329,63.0275 139.375329,63.0275 C140.192329,63.0275 140.891329,62.7595 141.394329,62.3745 C141.889329,61.9985 142.173329,61.4955 142.173329,60.9995 C142.173329,60.3945 141.819329,60.0645 141.253329,59.8755 C140.679329,59.6955 139.893329,59.6715 139.037329,59.6715 L138.118329,59.6715 Z M140.122329,58.6265 C141.245329,58.6265 142.070329,58.8855 142.613329,59.3105 C143.147329,59.7345 143.414329,60.3165 143.414329,60.9215 C143.414329,61.8095 142.872329,62.6035 142.078329,63.1685 C141.285329,63.7425 140.231329,64.0875 139.218329,64.0875 C138.283329,64.0875 137.528329,63.7975 137.010329,63.3265 C136.491329,62.8625 136.200329,62.2095 136.200329,61.4875 C136.200329,60.8275 136.553329,60.0405 137.175329,59.4135 C136.955329,59.2875 136.790329,59.0745 136.679329,58.8315 C136.569329,58.5875 136.507329,58.3285 136.507329,58.1005 C136.507329,57.6605 136.711329,57.1575 137.096329,56.6775 C136.876329,56.4505 136.703329,56.1355 136.593329,55.7905 C136.483329,55.4525 136.421329,55.0825 136.421329,54.7375 C136.421329,53.9585 136.726329,53.2835 137.261329,52.7955 C137.796329,52.3085 138.550329,52.0175 139.438329,52.0175 C140.043329,52.0175 140.577329,52.1515 141.017329,52.3955 C141.363329,52.1355 141.756329,51.9235 142.118329,51.7825 C142.479329,51.6405 142.825329,51.5705 143.099329,51.5705 L143.462329,52.5995 C143.029329,52.6695 142.464329,52.8505 141.928329,53.1885 C142.235329,53.6285 142.400329,54.1395 142.400329,54.7055 C142.400329,55.4835 142.086329,56.1985 141.552329,56.7245 C141.010329,57.2515 140.247329,57.5815 139.359329,57.5815 C138.786329,57.5815 138.283329,57.4405 137.850329,57.2275 C137.670329,57.4565 137.575329,57.6835 137.575329,57.8955 C137.575329,58.3045 137.929329,58.6265 138.581329,58.6265 L140.122329,58.6265 Z" id="Fill-38"></path>
                <polygon id="Fill-39" points="160.542029 52.1747 157.956029 60.3317 156.447029 60.3317 154.633029 54.1237 152.817029 60.3317 151.301029 60.3317 148.723029 52.1747 149.901029 52.1747 152.055029 58.9877 154.074029 52.1747 155.190029 52.1747 157.210029 58.9877 159.371029 52.1747"></polygon>
                <path d="M166.502929,55.4599 C166.494929,54.8309 166.408929,54.2579 166.164929,53.8329 C165.921929,53.4089 165.520929,53.1489 164.884929,53.1489 C164.263929,53.1489 163.768929,53.3939 163.391929,53.8019 C163.013929,54.2099 162.770929,54.7919 162.667929,55.4599 L166.502929,55.4599 Z M167.696929,56.5609 L162.612929,56.5609 C162.675929,57.5029 163.005929,58.2019 163.484929,58.6659 C163.964929,59.1299 164.608929,59.3569 165.308929,59.3569 C166.038929,59.3569 166.762929,59.1529 167.508929,58.7759 L167.531929,58.7839 L167.531929,59.9069 C166.683929,60.3239 165.944929,60.4889 165.189929,60.4889 C164.176929,60.4889 163.226929,60.1509 162.534929,59.4439 C161.842929,58.7359 161.402929,57.6599 161.402929,56.1509 C161.402929,54.9879 161.669929,53.9429 162.243929,53.2039 C162.809929,52.4659 163.681929,52.0179 164.907929,52.0179 C165.748929,52.0179 166.329929,52.2309 166.746929,52.5679 C167.154929,52.9059 167.398929,53.3689 167.531929,53.8809 C167.665929,54.3919 167.696929,54.9489 167.696929,55.4599 L167.696929,56.5609 Z" id="Fill-40"></path>
                <path d="M169.873129,52.1747 L170.690129,52.1747 L170.973129,53.1027 C171.578129,52.4037 172.223129,52.0177 172.977129,52.0177 C173.174129,52.0177 173.417129,52.0417 173.661129,52.0887 C173.904129,52.1357 174.140129,52.2147 174.329129,52.3007 L173.904129,53.3937 C173.598129,53.2437 173.118129,53.1417 172.780129,53.1417 C172.065129,53.1417 171.508129,53.5977 171.091129,54.2347 L171.091129,60.3317 L169.873129,60.3317 L169.873129,52.1747 Z" id="Fill-41"></path>
                <path d="M181.524429,60.4892 C181.116429,60.4662 180.636429,60.2062 180.157429,59.8292 C179.677429,59.4602 179.174429,58.9572 178.735429,58.4462 C178.287429,57.9432 177.878429,57.4252 177.587429,57.0082 C177.438429,56.8032 177.320429,56.6312 177.234429,56.4812 C177.139429,56.3322 177.085429,56.2382 177.069429,56.1902 L177.069429,60.3322 L175.851429,60.3322 L175.851429,49.1652 L176.990429,48.9532 L177.069429,48.9532 L177.069429,56.0412 L180.306429,52.1752 L181.862429,52.1752 L178.546429,56.1202 C178.586429,56.3012 178.844429,56.6772 179.222429,57.1182 C179.599429,57.5662 180.086429,58.0772 180.589429,58.5092 C181.092429,58.9412 181.611429,59.2872 182.027429,59.4132 L181.524429,60.4892 Z" id="Fill-42"></path>
                <path d="M182.568429,52.1747 L183.471429,52.1747 L183.471429,50.7137 L184.611429,50.5007 L184.690429,50.5007 L184.690429,52.1747 L186.953429,52.1747 L186.953429,53.3067 L184.690429,53.3067 L184.690429,57.3147 C184.690429,58.0607 184.855429,58.5637 185.114429,58.8937 C185.374429,59.2237 185.743429,59.3647 186.159429,59.3647 C186.631429,59.3647 187.157429,59.1847 187.691429,58.8777 L188.021429,59.9937 C187.330429,60.3087 186.646429,60.4887 186.009429,60.4887 C185.295429,60.4887 184.673429,60.2697 184.211429,59.7587 C183.747429,59.2557 183.471429,58.4537 183.471429,57.3147 L183.471429,53.3067 L182.568429,53.3067 L182.568429,52.1747 Z" id="Fill-43"></path>
                <polygon id="Fill-44" points="64.9229292 83.161 36.6849292 0.137 37.0869292 0 65.3249292 83.024"></polygon>
                <path d="M36.8628292,41.4091 C34.8258292,39.8541 33.8718292,41.4211 32.5908292,41.3171 C31.5068292,41.2311 30.4908292,39.4811 29.6518292,39.8991 C28.0508292,40.7141 30.2938292,43.5951 31.2668292,44.1821 C32.1338292,44.7021 33.2248292,45.1801 33.4868292,45.3021 C34.7738292,45.9031 35.2858292,46.8131 35.4478292,48.2351 C35.4888292,48.5611 35.4478292,49.3051 35.3678292,49.6511 C34.7808292,52.1431 30.4148292,54.4071 27.9078292,52.6941 C26.7268292,51.8861 25.6488292,50.8411 25.2758292,48.9911 C24.6008292,45.7161 22.2368292,43.3071 21.4788292,40.1021 C21.0178292,38.1551 20.6768292,36.1001 20.1688292,34.1411 C19.6518292,32.1161 19.1198292,30.1101 18.6958292,28.2701 C18.3088292,26.5591 17.4958292,24.0031 16.9068292,22.4451 C14.5118292,16.1931 13.4298292,16.6471 13.4298292,16.6471 C13.4298292,16.6471 14.3018292,18.3831 17.4728292,33.7061 C17.6038292,34.3331 18.7568292,41.0831 19.5978292,43.3051 C19.8988292,44.1021 20.4248292,45.8041 20.7698292,46.5551 C21.7788292,48.7511 24.4418292,52.0791 24.6178292,55.0791 C24.7188292,56.8131 24.9168292,58.2491 24.9578292,59.5611 C24.9828292,59.9461 25.1528292,61.5111 25.4028292,62.2061 C26.0528292,64.0361 31.3028292,69.9401 36.8768292,69.9401 L36.8768292,65.4661 C31.3388292,65.4661 26.1218292,62.3621 25.9928292,62.0361 C25.9128292,61.8891 26.2808292,59.7721 26.6558292,58.8311 C27.3818292,57.0091 28.7498292,55.3431 31.1558292,55.1651 C33.8388292,54.9721 35.4578292,55.7511 36.8768292,55.7511 L36.8628292,41.4091 Z" id="Fill-45"></path>
                <path d="M12.8130292,25.1698 C12.6100292,28.5208 7.42402919,33.1028 5.79902919,36.0398 C5.00302919,37.4848 4.03102919,39.9658 3.78002919,41.4028 C3.09002919,45.4008 3.96502919,47.8858 4.94002919,50.2258 C6.65602919,54.3388 4.70802919,55.8508 6.04902919,55.0168 C7.71002919,53.6628 7.45802919,50.5068 7.33502919,48.5358 C7.23902919,46.9368 7.13102919,45.1178 7.37402919,43.2118 C7.83402919,39.6458 9.99402919,35.8168 11.8370292,33.1418 C14.0260292,29.9498 13.2310292,26.6488 12.8130292,25.1698" id="Fill-46"></path>
                <path d="M13.8579292,34.6864 C13.8579292,34.6864 14.4109292,37.3404 12.0689292,44.1664 C5.94392919,62.0204 17.6439292,63.7114 20.9749292,67.9094 C20.9749292,67.9094 22.2639292,66.0904 16.9579292,60.2704 C15.0199292,58.1434 13.2719292,53.4574 14.7949292,46.7644 C16.9969292,37.0734 13.8579292,34.6864 13.8579292,34.6864" id="Fill-47"></path>
                <path d="M2.27592919,22.9814 C1.99592919,21.9264 1.91092919,20.9834 1.97192919,20.1414 C2.25492919,15.9464 6.06492919,14.2484 7.01392919,13.6234 C7.01392919,13.6234 8.72692919,12.4504 8.94792919,11.2654 C8.94792919,11.2654 10.7019292,15.6804 6.67992919,18.2104 C4.63892919,19.4954 3.25292919,21.0014 2.27592919,22.9814" id="Fill-48"></path>
                <path d="M11.8833292,18.9267 C12.1003292,19.3527 13.6793292,21.6637 7.21232919,27.0007 C0.758329189,32.3307 2.77432919,36.1417 2.77432919,36.1417 C2.77432919,36.1417 -4.11567081,32.3097 3.82032919,25.6887 C11.7543292,19.0727 10.1283292,17.7317 10.1283292,17.7317 C10.1283292,17.7317 11.2643292,17.6767 11.8833292,18.9267" id="Fill-49"></path>
                <path d="M23.7583292,22.538 C23.8523292,22.288 23.9873292,22.489 24.2703292,22.311 C24.5713292,22.026 24.8813292,21.559 25.3713292,21.402 C25.7233292,21.294 26.2053292,21.345 26.5343292,21.472 C26.7533292,21.526 26.6203292,22.089 26.4563292,22.233 C26.1073292,22.491 25.0743292,22.066 25.0743292,22.84 C25.1173292,24.108 26.7893292,22.8 27.6633292,22.836 C28.0903292,25.931 22.9973292,25.079 23.7583292,22.538 M20.2783292,20.97 C21.3953292,21.116 22.1063292,24.601 24.6903292,25.358 C26.5903292,25.913 28.6103292,25.612 29.0583292,26.755 C28.1863292,27.218 28.8733292,28.751 29.7503292,28.5 C30.4743292,26.464 30.8383292,18.595 20.2783292,20.97" id="Fill-50"></path>
            </g>
        </g>
    </g>
</svg>